<svg width="141" height="36" viewBox="0 0 141 36" fill="none" xmlns="http://www.w3.org/2000/svg">
<path d="M18.604 34.324C18.1187 34.7053 17.408 35.0173 16.472 35.26C15.536 35.5027 14.4787 35.624 13.3 35.624C11.948 35.624 10.7693 35.4507 9.764 35.104C8.79333 34.7573 8.11733 34.2027 7.736 33.44C7.424 32.8507 7.04267 32.036 6.592 30.996C6.176 29.9213 5.72533 28.7427 5.24 27.46C4.75467 26.1427 4.252 24.7387 3.732 23.248C3.212 21.7573 2.70933 20.284 2.224 18.828C1.77333 17.372 1.35733 15.968 0.976 14.616C0.594667 13.264 0.282667 12.068 0.0400001 11.028C0.525333 10.5427 1.16667 10.1267 1.964 9.78C2.796 9.39867 3.69733 9.208 4.668 9.208C5.88133 9.208 6.86933 9.468 7.632 9.988C8.42933 10.4733 9.01867 11.4093 9.4 12.796L11.428 20.752C11.8093 22.312 12.1733 23.7333 12.52 25.016C12.8667 26.264 13.1267 27.2347 13.3 27.928H13.56C14.2187 25.3627 14.912 22.52 15.64 19.4C16.368 16.28 17.0267 13.212 17.616 10.196C18.2053 9.884 18.864 9.64133 19.592 9.468C20.3547 9.29467 21.0827 9.208 21.776 9.208C22.9893 9.208 24.012 9.468 24.844 9.988C25.676 10.508 26.092 11.4093 26.092 12.692C26.092 13.2467 25.9533 14.0613 25.676 15.136C25.4333 16.176 25.104 17.372 24.688 18.724C24.3067 20.0413 23.8387 21.4453 23.284 22.936C22.764 24.4267 22.2267 25.8827 21.672 27.304C21.1173 28.7253 20.5627 30.06 20.008 31.308C19.488 32.5213 19.02 33.5267 18.604 34.324ZM55.942 22.364C55.942 24.5133 55.6127 26.4373 54.954 28.136C54.2954 29.8 53.3594 31.204 52.146 32.348C50.9674 33.492 49.546 34.3587 47.882 34.948C46.218 35.5373 44.3634 35.832 42.318 35.832C40.2727 35.832 38.418 35.52 36.754 34.896C35.09 34.272 33.6514 33.388 32.438 32.244C31.2594 31.0653 30.3407 29.644 29.682 27.98C29.0234 26.316 28.694 24.444 28.694 22.364C28.694 20.3187 29.0234 18.464 29.682 16.8C30.3407 15.136 31.2594 13.732 32.438 12.588C33.6514 11.4093 35.09 10.508 36.754 9.884C38.418 9.26 40.2727 8.948 42.318 8.948C44.3634 8.948 46.218 9.27733 47.882 9.936C49.546 10.56 50.9674 11.4613 52.146 12.64C53.3594 13.784 54.2954 15.188 54.954 16.852C55.6127 18.516 55.942 20.3533 55.942 22.364ZM37.742 22.364C37.742 24.4787 38.1407 26.108 38.938 27.252C39.77 28.3613 40.914 28.916 42.37 28.916C43.826 28.916 44.9354 28.344 45.698 27.2C46.4954 26.056 46.894 24.444 46.894 22.364C46.894 20.284 46.4954 18.6893 45.698 17.58C44.9007 16.436 43.774 15.864 42.318 15.864C40.862 15.864 39.7354 16.436 38.938 17.58C38.1407 18.6893 37.742 20.284 37.742 22.364ZM86.4108 22.364C86.4108 24.5133 86.0814 26.4373 85.4228 28.136C84.7641 29.8 83.8281 31.204 82.6148 32.348C81.4361 33.492 80.0148 34.3587 78.3508 34.948C76.6868 35.5373 74.8321 35.832 72.7868 35.832C70.7414 35.832 68.8868 35.52 67.2228 34.896C65.5588 34.272 64.1201 33.388 62.9068 32.244C61.7281 31.0653 60.8094 29.644 60.1508 27.98C59.4921 26.316 59.1628 24.444 59.1628 22.364C59.1628 20.3187 59.4921 18.464 60.1508 16.8C60.8094 15.136 61.7281 13.732 62.9068 12.588C64.1201 11.4093 65.5588 10.508 67.2228 9.884C68.8868 9.26 70.7414 8.948 72.7868 8.948C74.8321 8.948 76.6868 9.27733 78.3508 9.936C80.0148 10.56 81.4361 11.4613 82.6148 12.64C83.8281 13.784 84.7641 15.188 85.4228 16.852C86.0814 18.516 86.4108 20.3533 86.4108 22.364ZM68.2108 22.364C68.2108 24.4787 68.6094 26.108 69.4068 27.252C70.2388 28.3613 71.3828 28.916 72.8388 28.916C74.2948 28.916 75.4041 28.344 76.1668 27.2C76.9641 26.056 77.3628 24.444 77.3628 22.364C77.3628 20.284 76.9641 18.6893 76.1668 17.58C75.3694 16.436 74.2428 15.864 72.7868 15.864C71.3308 15.864 70.2041 16.436 69.4068 17.58C68.6094 18.6893 68.2108 20.284 68.2108 22.364ZM88.6557 30.788C88.6557 29.332 89.1064 28.1187 90.0077 27.148C90.9091 26.1773 92.1397 25.692 93.6997 25.692C95.2597 25.692 96.4904 26.1773 97.3917 27.148C98.2931 28.1187 98.7437 29.332 98.7437 30.788C98.7437 32.244 98.2931 33.4573 97.3917 34.428C96.4904 35.3987 95.2597 35.884 93.6997 35.884C92.1397 35.884 90.9091 35.3987 90.0077 34.428C89.1064 33.4573 88.6557 32.244 88.6557 30.788ZM111.602 34.948C111.221 35.0173 110.649 35.104 109.886 35.208C109.158 35.3467 108.413 35.416 107.65 35.416C106.888 35.416 106.194 35.364 105.57 35.26C104.981 35.156 104.478 34.948 104.062 34.636C103.646 34.324 103.317 33.908 103.074 33.388C102.866 32.8333 102.762 32.1227 102.762 31.256V1.096C103.144 1.02666 103.698 0.939998 104.426 0.836C105.189 0.697333 105.952 0.627999 106.714 0.627999C107.477 0.627999 108.153 0.679999 108.742 0.783997C109.366 0.887998 109.886 1.096 110.302 1.408C110.718 1.72 111.03 2.15333 111.238 2.708C111.481 3.228 111.602 3.92133 111.602 4.788V34.948ZM127.997 29.384C128.586 29.384 129.227 29.332 129.921 29.228C130.649 29.0893 131.186 28.916 131.533 28.708V24.548L127.789 24.86C126.818 24.9293 126.021 25.1373 125.397 25.484C124.773 25.8307 124.461 26.3507 124.461 27.044C124.461 27.7373 124.721 28.3093 125.241 28.76C125.795 29.176 126.714 29.384 127.997 29.384ZM127.581 8.948C129.453 8.948 131.151 9.13866 132.677 9.52C134.237 9.90133 135.554 10.4907 136.629 11.288C137.738 12.0507 138.587 13.0387 139.177 14.252C139.766 15.4307 140.061 16.8347 140.061 18.464V30.112C140.061 31.0133 139.801 31.7587 139.281 32.348C138.795 32.9027 138.206 33.388 137.513 33.804C135.259 35.156 132.087 35.832 127.997 35.832C126.159 35.832 124.495 35.6587 123.005 35.312C121.549 34.9653 120.283 34.4453 119.209 33.752C118.169 33.0587 117.354 32.1747 116.765 31.1C116.21 30.0253 115.933 28.7773 115.933 27.356C115.933 24.964 116.643 23.1267 118.065 21.844C119.486 20.5613 121.687 19.764 124.669 19.452L131.481 18.724V18.36C131.481 17.3547 131.03 16.644 130.129 16.228C129.262 15.7773 127.997 15.552 126.333 15.552C125.015 15.552 123.733 15.6907 122.485 15.968C121.237 16.2453 120.11 16.592 119.105 17.008C118.654 16.696 118.273 16.228 117.961 15.604C117.649 14.9453 117.493 14.2693 117.493 13.576C117.493 12.6747 117.701 11.964 118.117 11.444C118.567 10.8893 119.243 10.4213 120.145 10.04C121.15 9.65867 122.329 9.38133 123.681 9.208C125.067 9.03466 126.367 8.948 127.581 8.948Z" fill="white"/>
</svg>
